<?xml version="1.0" encoding="UTF-8"?><svg id="svg_canvas" data-noselect="" viewBox="0 0 800 600" width="800" height="600" preserveAspectRatio="none" version="1.1" xmlns="http://www.w3.org/2000/svg" xmlns:xlink="http://www.w3.org/1999/xlink"><defs></defs> <g id="background" data-noselect=""><rect fill="rgb(17, 35, 47)" width="800" height="600" data-noselect=""></rect> <!----></g> <g id="shape_HTDbvxvjZK" transform="translate(156.8038996027615,194.8731296588905) rotate(0,80,80) scale(1,1)" filter="" style="cursor: move; opacity: 1;"><g><rect fill="rgba(0,0,0,0)" width="128.40979475048005" height="180" x="-10" y="-10"></rect><svg version="1.1" id="图层_1" xmlns="http://www.w3.org/2000/svg" xmlns:xlink="http://www.w3.org/1999/xlink" x="0px" y="0px" style="enable-background:new 0 0 283.465 283.465;" xml:space="preserve" viewBox="71.9749984741211 38.77699279785156 139.51596069335938 205.9090118408203" width="108.40979475048006" height="160" class="style-removed" preserveAspectRatio="none" data-parent="shape_HTDbvxvjZK">
<g>
	<path d="M178.451,139.774c4.965-7.189,7.88-15.906,7.88-25.305l0,0V65.021V54.352v-0.29
		c0.079-1.205,1.069-2.16,2.296-2.16h10.823h5.479c3.623,0,6.56-2.937,6.56-6.56c0-3.623-2.936-6.563-6.56-6.563l-0.004,0.011
		l-18.581-0.011h-0.014l0,0h-0.011c-7.239,0.014-13.105,5.88-13.105,13.123v12.357v50.21c0,5.912-1.631,11.435-4.46,16.156l0,0l0,0
		C172.402,133.204,175.668,136.287,178.451,139.774z" fill="#01C5BE" stroke-width="0"></path>
	<path d="M204.929,231.566h-5.479h-10.823c-1.227,0-2.217-0.959-2.296-2.164v-0.286V218.45v-49.451v-0.004
		c0-9.396-2.915-18.112-7.88-25.305c-0.229-0.333-0.468-0.672-0.712-0.998c-0.24-0.329-0.479-0.644-0.726-0.955l0,0
		c-2.704-3.505-5.926-6.588-9.542-9.149l0,0c-0.326-0.232-0.648-0.465-0.973-0.687c-0.333-0.218-0.669-0.426-1.001-0.633
		c-6.882-4.349-15.025-6.867-23.76-6.867c-8.741,0-16.886,2.518-23.767,6.867l0,0l0,0c2.722,3.838,6.352,6.989,10.569,9.149
		c4.02-1.86,8.484-2.9,13.198-2.9c4.707,0,9.178,1.041,13.187,2.9c0.447,0.208,0.887,0.415,1.32,0.648
		c0.408,0.211,0.819,0.433,1.22,0.672c3.96,2.285,7.379,5.415,10.008,9.146c0.218,0.315,0.444,0.629,0.651,0.955
		c0.215,0.329,0.429,0.665,0.633,1.001c2.829,4.725,4.46,10.254,4.46,16.16v50.209v7.576v4.782c0,7.239,5.866,13.105,13.105,13.116
		l0.011,0.004l0,0l0.014-0.004h18.581h0.004c3.623,0,6.56-2.933,6.56-6.56C211.488,234.502,208.552,231.566,204.929,231.566z" fill="#01C5BE" stroke-width="0"></path>
	<path d="M154.923,143.054c-4.009,1.852-8.481,2.893-13.187,2.893c-4.714,0-9.178-1.041-13.198-2.893
		c-0.44-0.211-0.88-0.426-1.313-0.648c-0.411-0.222-0.819-0.44-1.22-0.669c-3.967-2.293-7.383-5.422-10.015-9.149
		c-0.222-0.322-0.436-0.64-0.648-0.962c-0.215-0.336-0.426-0.658-0.633-1.002c-2.826-4.721-4.457-10.244-4.457-16.156v-50.21v-7.576
		v-4.782c0-7.243-5.87-13.109-13.105-13.123c-0.007,0-0.007,0-0.007,0h-0.007h-0.014L78.547,38.79c0,0-0.007-0.011-0.011-0.011
		c-3.623,0-6.56,2.94-6.56,6.563c0,3.623,2.937,6.56,6.56,6.56h5.48h10.827c1.223,0,2.217,0.955,2.293,2.16v0.29v10.669v49.448l0,0
		c0,9.399,2.915,18.116,7.879,25.305c0.236,0.34,0.472,0.676,0.712,1.001c0.24,0.326,0.479,0.64,0.73,0.962l0,0
		c2.704,3.498,5.923,6.578,9.535,9.146l0,0l0,0c0.326,0.229,0.654,0.454,0.98,0.683c0.329,0.215,0.661,0.422,0.998,0.637
		c6.882,4.342,15.026,6.867,23.767,6.867c8.734,0,16.878-2.525,23.76-6.867l0,0v-0.007
		C162.774,148.358,159.151,145.207,154.923,143.054z" fill="#01C5BE" stroke-width="0"></path>
	<path d="M105.014,143.69c-4.964,7.193-7.879,15.909-7.879,25.305v0.004v49.451v10.666v0.286
		c-0.075,1.205-1.069,2.164-2.293,2.164H84.015h-5.48c-3.623,0-6.56,2.936-6.56,6.556c0,3.627,2.937,6.56,6.56,6.56
		c0.004,0,0.007,0,0.007,0h18.577l0.014,0.004l0,0c0,0,0.007-0.004,0.014-0.004c7.235-0.011,13.105-5.877,13.105-13.116v-12.358
		v-50.209c0-5.905,1.631-11.435,4.457-16.16l0,0l0,0C111.066,150.264,107.793,147.181,105.014,143.69z" fill="#01C5BE" stroke-width="0"></path>
</g>
</svg></g></g><g id="shape_8pOeprnqS2" transform="translate(239.4718146829528,13.595059139409955) rotate(0,249.01,280.75859) scale(1,1)" filter="" style="cursor: move; opacity: 1;"><g><svg xmlns="http://www.w3.org/2000/svg" version="1.1" xmlns:xlink="http://www.w3.org/1999/xlink" width="658.04" height="561.51718" viewBox="0 0 658.04 561.51718" data-parent="shape_8pOeprnqS2"><rect fill="rgba(0,0,0,0)" width="338" height="80" x="80.01" y="240.75859000000003"></rect><g data-width="337.32216000000005" transform="translate(80.01, 0)"><path d="M0.32 0L18.48-26.96L0.96-53.37L14.88-53.37L25.36-35.76L36.72-53.37L50.49-53.37L32.40-26.96L50.49 0L37.12 0L25.36-18.32L13.84 0L0.32 0Z" transform="translate(0 308.75859) " fill="rgb(1, 197, 190)" stroke="rgb(1, 197, 190)" stroke-width="0.133" data-glyph-w="50.966370000000005" data-glyph-h="80.01" data-glyph-ascender="68.72859000000001" data-glyph-descender="-11.281410000000001"></path><path d="M4.80-53.37L16.08-53.37L16.08-21.36Q16.08-17.52 16.72-15.40Q17.36-13.28 18.88-11.76L18.88-11.76Q22.24-8.48 28.24-8.48L28.24-8.48Q32.08-8.48 34.92-9.80Q37.76-11.12 38.88-13.36L38.88-13.36Q40.01-15.60 40.01-21.36L40.01-21.36L40.01-53.37L51.37-53.37L51.37-21.92Q51.37-15.68 50.05-11.64Q48.73-7.60 46.01-5.12L46.01-5.12Q39.68 0.40 28.08 0.40L28.08 0.40Q15.68 0.40 10.00-5.04L10.00-5.04Q7.04-7.84 5.92-11.32Q4.80-14.80 4.80-21.12L4.80-21.12L4.80-53.37Z" transform="translate(50.966370000000005 308.75859) " fill="rgb(1, 197, 190)" stroke="rgb(1, 197, 190)" stroke-width="0.133" data-glyph-w="56.24703000000001" data-glyph-h="80.01" data-glyph-ascender="68.72859000000001" data-glyph-descender="-11.281410000000001"></path><path d="M0-25.44L18.64-25.44L18.64-15.84L0-15.84L0-25.44Z" transform="translate(107.21340000000001 308.75859) " fill="rgb(1, 197, 190)" stroke="rgb(1, 197, 190)" stroke-width="0.133" data-glyph-w="18.64233" data-glyph-h="80.01" data-glyph-ascender="68.72859000000001" data-glyph-descender="-11.281410000000001"></path><path d="M34.96 0L5.44 0L5.44-53.37L35.60-53.37Q42.73-53.37 45.93-51.69L45.93-51.69Q49.69-49.85 51.61-45.53L51.61-45.53Q52.97-42.57 52.97-39.36L52.97-39.36Q52.97-35.20 50.77-31.60Q48.57-28.00 45.21-26.64L45.21-26.64Q52.97-23.12 52.97-14.08L52.97-14.08Q52.97-8.88 50.49-5.36L50.49-5.36Q48.33-2.32 44.97-1.16Q41.61 0 34.96 0L34.96 0ZM16.80-43.85L16.80-31.44L32.24-31.44Q34.72-31.44 35.80-31.68Q36.88-31.92 37.92-32.72L37.92-32.72Q40.41-34.64 40.41-38.00L40.41-38.00Q40.41-41.21 38.08-42.73L38.08-42.73Q36.40-43.85 32.48-43.85L32.48-43.85L16.80-43.85ZM16.80-21.92L16.80-9.52L32.24-9.52Q34.72-9.52 35.84-9.76Q36.96-10.00 37.92-10.80L37.92-10.80Q40.41-12.72 40.41-16.08L40.41-16.08Q40.41-19.28 38.08-20.80L38.08-20.80Q36.40-21.92 32.48-21.92L32.48-21.92L16.80-21.92Z" transform="translate(125.85573000000001 308.75859) " fill="rgb(1, 197, 190)" stroke="rgb(1, 197, 190)" stroke-width="0.133" data-glyph-w="55.84698000000001" data-glyph-h="80.01" data-glyph-ascender="68.72859000000001" data-glyph-descender="-11.281410000000001"></path><path d="M4.80-23.36L4.80-53.37L16.08-53.37L16.08-23.36Q16.32-17.68 16.56-15.84L16.56-15.84Q17.12-12.16 20.08-10.84Q23.04-9.52 30.48-9.52L30.48-9.52L41.37-9.52L41.37 0L29.28 0Q20.72 0 16.88-0.96L16.88-0.96Q8.08-3.52 5.68-12.16L5.68-12.16Q4.80-15.52 4.80-23.36L4.80-23.36Z" transform="translate(181.70271000000002 308.75859) " fill="rgb(1, 197, 190)" stroke="rgb(1, 197, 190)" stroke-width="0.133" data-glyph-w="42.56532000000001" data-glyph-h="80.01" data-glyph-ascender="68.72859000000001" data-glyph-descender="-11.281410000000001"></path><path d="M28.88-53.69L28.88-53.69Q36.88-53.69 42.97-50.97L42.97-50.97Q50.09-47.69 52.97-40.01L52.97-40.01Q55.21-34.00 55.21-25.92L55.21-25.92Q55.21-17.76 52.49-11.76L52.49-11.76Q49.05-4.64 41.93-1.76L41.93-1.76Q36.64 0.32 29.76 0.32L29.76 0.32Q20.72 0.32 14.08-3.04L14.08-3.04Q8.48-5.84 5.52-11.84Q2.56-17.84 2.56-26.40L2.56-26.40Q2.56-41.69 10.16-48.17L10.16-48.17Q16.56-53.61 28.88-53.69ZM28.96-44.73L28.96-44.73Q21.12-44.73 17.76-39.60L17.76-39.60Q15.04-35.60 15.04-26.72L15.04-26.72Q15.04-17.36 18.40-12.96L18.40-12.96Q21.76-8.64 29.04-8.64L29.04-8.64Q36.08-8.64 39.40-13.04Q42.73-17.44 42.73-26.64L42.73-26.64Q42.73-35.04 40.01-39.44L40.01-39.44Q36.88-44.65 28.96-44.73Z" transform="translate(224.26803000000004 308.75859) " fill="rgb(1, 197, 190)" stroke="rgb(1, 197, 190)" stroke-width="0.133" data-glyph-w="57.76722000000001" data-glyph-h="80.01" data-glyph-ascender="68.72859000000001" data-glyph-descender="-11.281410000000001"></path><path d="M25.04-22.16L25.04-31.68L51.21-31.68L51.21 0L27.36 0Q21.20 0 17.56-0.92Q13.92-1.84 10.96-4.16L10.96-4.16Q2.56-10.64 2.56-26.48L2.56-26.48Q2.56-36.80 6.56-43.69L6.56-43.69Q9.52-48.73 14.64-51.05Q19.76-53.37 27.92-53.37L27.92-53.37L51.21-53.37L51.21-43.85L29.20-43.85Q22.08-43.85 18.88-40.73L18.88-40.73Q15.04-37.04 15.04-27.52L15.04-27.52Q15.04-22.64 16.04-18.72Q17.04-14.80 18.80-12.88L18.80-12.88Q20.32-11.12 23.00-10.32Q25.68-9.52 29.60-9.52L29.60-9.52L39.92-9.52L39.92-22.16L25.04-22.16Z" transform="translate(282.03525 308.75859) " fill="rgb(1, 197, 190)" stroke="rgb(1, 197, 190)" stroke-width="0.133" data-glyph-w="55.286910000000006" data-glyph-h="80.01" data-glyph-ascender="68.72859000000001" data-glyph-descender="-11.281410000000001"></path></g></svg></g></g>  <!----><defs><pattern id="wm_tile" x="0" y="0" width="20%" height="27%" patternunits="objectBoundingBox"><g id="wm_lm" transform="translate(-188.000000, -323.000000)" fill="#cccccc"><text font-size="15" transform="translate(270.490979, 373.245789) rotate(-390.000000) translate(-270.490979, -373.245789)"><tspan x="187.490979" opacity=".3" y="378.245789">copyright © copyright © </tspan></text></g></pattern></defs><rect x="0" y="0" width="100%" height="100%" style="fill: url(#wm_tile);"></rect></svg>